# Blender 4.0.1
# www.blender.org
mtllib Key.mtl
o Cube.002
v -0.053889 -1.582559 -0.445960
v -0.053889 -1.520000 -0.552224
v -0.085827 -1.520000 -0.445960
v -0.053889 -1.520000 0.018902
v -0.053889 -1.582559 -0.087362
v -0.085827 -1.520000 -0.087362
v -0.085827 -1.308890 -0.445960
v -0.053889 -1.308890 -0.552224
v -0.053889 -1.246332 -0.445960
v -0.085827 -1.308890 -0.087362
v -0.053889 -1.246332 -0.087362
v -0.053889 -1.308890 0.018902
v 0.053889 -1.582559 -0.445960
v 0.085827 -1.520000 -0.445960
v 0.053889 -1.520000 -0.552224
v 0.085827 -1.520000 -0.087362
v 0.053889 -1.582559 -0.087362
v 0.053889 -1.520000 0.018902
v 0.085827 -1.308890 -0.445960
v 0.053889 -1.246332 -0.445960
v 0.053889 -1.308890 -0.552224
v 0.053889 -1.308890 0.018902
v 0.053889 -1.246332 -0.087362
v 0.085827 -1.308890 -0.087362
v -0.075998 -1.402629 0.202655
v -0.075998 -1.778503 0.128340
v -0.121039 -1.402629 0.128340
v -0.075998 0.241663 0.128340
v -0.075998 -0.134211 0.202655
v -0.121039 -0.134211 0.128340
v -0.121039 -1.402629 -0.122442
v -0.075998 -1.778503 -0.122442
v -0.075998 -1.402629 -0.196757
v -0.121039 -0.134211 -0.122442
v -0.075998 -0.134211 -0.196757
v -0.075998 0.241663 -0.122442
v 0.075998 -1.402629 0.202655
v 0.121039 -1.402629 0.128340
v 0.075998 -1.778503 0.128340
v 0.121039 -0.134211 0.128340
v 0.075998 -0.134211 0.202655
v 0.075998 0.241663 0.128340
v 0.121039 -1.402629 -0.122442
v 0.075998 -1.402629 -0.196757
v 0.075998 -1.778503 -0.122442
v 0.075998 0.241663 -0.122442
v 0.075998 -0.134211 -0.196757
v 0.121039 -0.134211 -0.122442
v -0.011369 0.708700 -0.668039
v -0.152099 0.696045 -0.601459
v -0.186856 0.667608 -0.451856
v -0.089468 0.644803 -0.331883
v 0.066730 0.644803 -0.331883
v 0.164118 0.667608 -0.451856
v 0.129361 0.696045 -0.601459
v -0.011369 0.249585 -0.593370
v -0.152099 0.282687 -0.534232
v -0.186856 0.357066 -0.401350
v -0.089468 0.416713 -0.294788
v 0.066730 0.416713 -0.294788
v 0.164118 0.357066 -0.401350
v 0.129361 0.282687 -0.534232
v -0.011369 -0.054121 -0.241057
v -0.152099 0.009249 -0.217032
v -0.186856 0.151641 -0.163049
v -0.089468 0.265831 -0.119758
v 0.066730 0.265831 -0.119758
v 0.164118 0.151641 -0.163049
v 0.129361 0.009249 -0.217032
v -0.011369 -0.060312 0.224049
v -0.152099 0.003676 0.201719
v -0.186856 0.147454 0.151545
v -0.089468 0.262756 0.111308
v 0.066730 0.262756 0.111308
v 0.164118 0.147454 0.151545
v 0.129361 0.003676 0.201719
v -0.011369 0.233910 0.584320
v -0.152099 0.268574 0.526084
v -0.186856 0.346464 0.395229
v -0.089468 0.408926 0.290292
v 0.066730 0.408926 0.290292
v 0.164118 0.346464 0.395229
v 0.129361 0.268574 0.526084
v -0.011369 0.690876 0.671181
v -0.152099 0.679997 0.604288
v -0.186856 0.655551 0.453981
v -0.089468 0.635948 0.333445
v 0.066730 0.635948 0.333445
v 0.164118 0.655551 0.453981
v 0.129361 0.679997 0.604288
v -0.011369 1.096765 0.443989
v -0.152099 1.045433 0.399739
v -0.186856 0.930092 0.300310
v -0.089468 0.837595 0.220575
v 0.066730 0.837595 0.220575
v 0.164118 0.930092 0.300310
v 0.129361 1.045433 0.399739
v -0.011369 1.261658 0.009050
v -0.152099 1.193892 0.008148
v -0.186856 1.041623 0.006121
v -0.089468 0.919514 0.004496
v 0.066730 0.919514 0.004496
v 0.164118 1.041623 0.006121
v 0.129361 1.193892 0.008148
v -0.011369 1.108399 -0.430124
v -0.152099 1.055908 -0.387256
v -0.186856 0.937961 -0.290933
v -0.089468 0.843374 -0.213687
v 0.066730 0.843374 -0.213687
v 0.164118 0.937961 -0.290933
v 0.129361 1.055908 -0.387256
v -0.055158 -1.136399 -0.434457
v -0.055158 -1.072367 -0.543223
v -0.087848 -1.072367 -0.434457
v -0.055158 -1.072367 0.041350
v -0.055158 -1.136399 -0.067416
v -0.087848 -1.072367 -0.067416
v -0.087848 -0.856287 -0.434457
v -0.055158 -0.856287 -0.543223
v -0.055158 -0.792255 -0.434457
v -0.087848 -0.856287 -0.067416
v -0.055158 -0.792255 -0.067416
v -0.055158 -0.856287 0.041350
v 0.055158 -1.136399 -0.434457
v 0.087848 -1.072367 -0.434457
v 0.055158 -1.072367 -0.543223
v 0.087848 -1.072367 -0.067416
v 0.055158 -1.136399 -0.067416
v 0.055158 -1.072367 0.041350
v 0.087848 -0.856287 -0.434457
v 0.055158 -0.792255 -0.434457
v 0.055158 -0.856287 -0.543223
v 0.055158 -0.856287 0.041350
v 0.055158 -0.792255 -0.067416
v 0.087848 -0.856287 -0.067416
vn -0.0000 -0.0000 1.0000
vn 1.0000 -0.0000 -0.0000
vn -0.0000 1.0000 -0.0000
vn -0.0000 -0.0000 -1.0000
vn -1.0000 -0.0000 -0.0000
vn -0.8604 -0.4392 -0.2586
vn -0.8604 -0.4392 0.2586
vn -0.8604 0.4392 -0.2586
vn -0.8604 0.4392 0.2586
vn 0.8604 -0.4392 -0.2586
vn 0.8604 -0.4392 0.2586
vn 0.8604 0.4392 -0.2586
vn 0.8604 0.4392 0.2586
vn 0.9577 -0.0000 0.2878
vn -0.0000 -0.8618 0.5073
vn -0.8906 -0.4547 -0.0000
vn 0.8906 0.4547 -0.0000
vn -0.8906 0.4547 -0.0000
vn 0.8906 -0.4547 -0.0000
vn -0.0000 0.8618 -0.5073
vn -0.9577 -0.0000 -0.2878
vn -0.0000 0.8618 0.5073
vn 0.9577 -0.0000 -0.2878
vn -0.0000 -0.8618 -0.5073
vn -0.9577 -0.0000 0.2878
vn -0.0000 -1.0000 -0.0000
vn -0.8507 -0.1019 0.5156
vn -0.8507 0.1019 0.5156
vn -0.8507 -0.1019 -0.5156
vn -0.8507 0.1019 -0.5156
vn 0.8507 -0.1019 0.5156
vn 0.8507 0.1019 0.5156
vn 0.8507 -0.1019 -0.5156
vn 0.8507 0.1019 -0.5156
vn 0.9929 0.1190 -0.0000
vn -0.0000 0.1940 0.9810
vn -0.8552 -0.0000 0.5183
vn 0.8552 -0.0000 -0.5183
vn -0.8552 -0.0000 -0.5183
vn 0.8552 -0.0000 0.5183
vn -0.0000 -0.1940 -0.9810
vn -0.9929 -0.1190 -0.0000
vn -0.0000 0.1940 -0.9810
vn 0.9929 -0.1190 -0.0000
vn -0.0000 -0.1940 0.9810
vn -0.9929 0.1190 -0.0000
vn 0.4123 0.1462 0.8992
vn 0.9717 0.0379 0.2330
vn 0.7624 -0.1039 -0.6387
vn -0.0000 -0.1605 -0.9870
vn -0.7624 -0.1039 -0.6387
vn -0.9717 0.0379 0.2330
vn -0.4123 0.1462 0.8992
vn 0.4123 0.6901 0.5949
vn 0.9717 0.1788 0.1541
vn 0.7624 -0.4901 -0.4225
vn -0.0000 -0.7574 -0.6529
vn -0.7624 -0.4901 -0.4225
vn -0.9717 0.1788 0.1541
vn -0.4123 0.6901 0.5949
vn 0.4123 0.9110 0.0121
vn 0.9717 0.2360 0.0031
vn 0.7624 -0.6470 -0.0086
vn -0.0000 -0.9999 -0.0133
vn -0.7624 -0.6470 -0.0086
vn -0.9717 0.2360 0.0031
vn -0.4123 0.9110 0.0121
vn 0.4123 0.7056 -0.5763
vn 0.9717 0.1828 -0.1493
vn 0.7624 -0.5012 0.4093
vn -0.0000 -0.7745 0.6325
vn -0.7624 -0.5012 0.4093
vn -0.9717 0.1828 -0.1493
vn -0.4123 0.7056 -0.5763
vn 0.4123 0.1701 -0.8950
vn 0.9717 0.0441 -0.2319
vn 0.7624 -0.1208 0.6357
vn -0.0000 -0.1867 0.9824
vn -0.7624 -0.1208 0.6357
vn -0.9717 0.0441 -0.2319
vn -0.4123 0.1701 -0.8950
vn 0.4123 -0.4450 -0.7950
vn 0.9717 -0.1153 -0.2060
vn 0.7624 0.3160 0.5646
vn -0.0000 0.4884 0.8726
vn -0.7624 0.3160 0.5646
vn -0.9717 -0.1153 -0.2060
vn -0.4123 -0.4450 -0.7950
vn 0.4123 -0.8519 -0.3230
vn 0.9717 -0.2207 -0.0837
vn 0.7624 0.6050 0.2294
vn -0.0000 0.9351 0.3545
vn -0.7624 0.6050 0.2294
vn -0.9717 -0.2207 -0.0837
vn -0.4123 -0.8519 -0.3230
vn 0.4123 -0.8602 0.3002
vn 0.9717 -0.2228 0.0778
vn 0.7624 0.6109 -0.2132
vn -0.0000 0.9442 -0.3295
vn -0.7624 0.6109 -0.2132
vn -0.9717 -0.2228 0.0778
vn -0.4123 -0.8602 0.3002
vn 0.4123 -0.4660 0.7829
vn 0.9717 -0.1207 0.2028
vn 0.7624 0.3310 -0.5560
vn -0.0000 0.5115 -0.8593
vn -0.7624 0.3310 -0.5560
vn -0.9717 -0.1207 0.2028
vn -0.4123 -0.4660 0.7829
vt 0.171515 0.546515
vt 0.328485 0.546515
vt 0.328485 0.703485
vt 0.171515 0.703485
vt 0.421515 0.046515
vt 0.578485 0.046515
vt 0.578485 0.203485
vt 0.421515 0.203485
vt 0.421515 0.796515
vt 0.578485 0.796515
vt 0.578485 0.953485
vt 0.421515 0.953485
vt 0.671515 0.546515
vt 0.828485 0.546515
vt 0.828485 0.703485
vt 0.671515 0.703485
vt 0.421515 0.546515
vt 0.578485 0.546515
vt 0.578485 0.703485
vt 0.421515 0.703485
vt 0.578485 0.453485
vt 0.625000 0.453485
vt 0.578485 0.500000
vt 0.328485 0.500000
vt 0.375000 0.546515
vt 0.578485 0.750000
vt 0.625000 0.796515
vt 0.375000 0.703485
vt 0.328485 0.750000
vt 0.578485 0.250000
vt 0.625000 0.203485
vt 0.125000 0.546515
vt 0.171515 0.500000
vt 0.578485 0.000000
vt 0.625000 0.046515
vt 0.171515 0.750000
vt 0.125000 0.703485
vt 0.421515 0.453485
vt 0.421515 0.000000
vt 0.578485 0.296515
vt 0.421515 0.296515
vt 0.625000 0.953485
vt 0.625000 0.296515
vt 0.555556 0.571429
vt 0.666667 0.571429
vt 0.666667 0.714286
vt 0.555556 0.714286
vt 0.666667 0.857143
vt 0.555556 0.857143
vt 0.666667 1.000000
vt 0.555556 1.000000
vt 0.555556 -0.000000
vt 0.666667 -0.000000
vt 0.666667 0.142857
vt 0.555556 0.142857
vt 0.666667 0.285714
vt 0.555556 0.285714
vt 0.666667 0.428571
vt 0.555556 0.428571
vt 0.777778 0.571429
vt 0.777778 0.714286
vt 0.777778 0.857143
vt 0.777778 1.000000
vt 0.777778 -0.000000
vt 0.777778 0.142857
vt 0.777778 0.285714
vt 0.777778 0.428571
vt 0.888889 0.571429
vt 0.888889 0.714286
vt 0.888889 0.857143
vt 0.888889 1.000000
vt 0.888889 -0.000000
vt 0.888889 0.142857
vt 0.888889 0.285714
vt 0.888889 0.428571
vt 1.000000 0.571429
vt 1.000000 0.714286
vt 1.000000 0.857143
vt 1.000000 1.000000
vt 1.000000 -0.000000
vt 1.000000 0.142857
vt 1.000000 0.285714
vt 1.000000 0.428571
vt 0.000000 0.571429
vt 0.111111 0.571429
vt 0.111111 0.714286
vt 0.000000 0.714286
vt 0.111111 0.857143
vt 0.000000 0.857143
vt 0.111111 1.000000
vt 0.000000 1.000000
vt 0.000000 -0.000000
vt 0.111111 -0.000000
vt 0.111111 0.142857
vt 0.000000 0.142857
vt 0.111111 0.285714
vt 0.000000 0.285714
vt 0.111111 0.428571
vt 0.000000 0.428571
vt 0.222222 0.571429
vt 0.222222 0.714286
vt 0.222222 0.857143
vt 0.222222 1.000000
vt 0.222222 -0.000000
vt 0.222222 0.142857
vt 0.222222 0.285714
vt 0.222222 0.428571
vt 0.333333 0.571429
vt 0.333333 0.714286
vt 0.333333 0.857143
vt 0.333333 1.000000
vt 0.333333 -0.000000
vt 0.333333 0.142857
vt 0.333333 0.285714
vt 0.333333 0.428571
vt 0.444444 0.571429
vt 0.444444 0.714286
vt 0.444444 0.857143
vt 0.444444 1.000000
vt 0.444444 -0.000000
vt 0.444444 0.142857
vt 0.444444 0.285714
vt 0.444444 0.428571
s 0
usemtl Material.002
f 18/1/1 22/4/1 12/3/1 4/2/1
f 24/5/2 16/8/2 14/7/2 19/6/2
f 11/9/3 23/12/3 20/11/3 9/10/3
f 2/13/4 8/16/4 21/15/4 15/14/4
f 6/17/5 10/20/5 7/19/5 3/18/5
f 1/21/6 3/23/6 2/22/6
f 4/2/7 6/25/7 5/24/7
f 7/26/8 9/10/8 8/27/8
f 10/28/9 12/3/9 11/29/9
f 13/30/10 15/31/10 14/7/10
f 16/32/11 18/1/11 17/33/11
f 19/6/12 21/35/12 20/34/12
f 22/4/13 24/37/13 23/36/13
f 18/1/14 16/32/14 24/37/14 22/4/14
f 4/2/15 5/24/15 17/33/15 18/1/15
f 3/18/16 1/21/16 5/38/16 6/17/16
f 23/39/17 24/5/17 19/6/17 20/34/17
f 9/10/18 7/19/18 10/20/18 11/9/18
f 13/40/19 14/7/19 16/8/19 17/41/19
f 8/27/20 9/10/20 20/11/20 21/42/20
f 2/13/21 3/18/21 7/19/21 8/16/21
f 22/4/22 23/36/22 11/29/22 12/3/22
f 21/35/23 19/6/23 14/7/23 15/31/23
f 15/43/24 13/40/24 1/21/24 2/22/24
f 12/3/25 10/20/25 6/17/25 4/2/25
f 17/41/26 5/38/26 1/21/26 13/40/26
usemtl Material
f 42/1/3 46/4/3 36/3/3 28/2/3
f 48/5/2 40/8/2 38/7/2 43/6/2
f 35/9/4 47/12/4 44/11/4 33/10/4
f 26/13/26 32/16/26 45/15/26 39/14/26
f 30/17/5 34/20/5 31/19/5 27/18/5
f 25/21/27 27/23/27 26/22/27
f 28/2/28 30/25/28 29/24/28
f 31/26/29 33/10/29 32/27/29
f 34/28/30 36/3/30 35/29/30
f 37/30/31 39/31/31 38/7/31
f 40/32/32 42/1/32 41/33/32
f 43/6/33 45/35/33 44/34/33
f 46/4/34 48/37/34 47/36/34
f 42/1/35 40/32/35 48/37/35 46/4/35
f 28/2/36 29/24/36 41/33/36 42/1/36
f 27/18/37 25/21/37 29/38/37 30/17/37
f 47/39/38 48/5/38 43/6/38 44/34/38
f 33/10/39 31/19/39 34/20/39 35/9/39
f 37/40/40 38/7/40 40/8/40 41/41/40
f 32/27/41 33/10/41 44/11/41 45/42/41
f 26/13/42 27/18/42 31/19/42 32/16/42
f 46/4/43 47/36/43 35/29/43 36/3/43
f 45/35/44 43/6/44 38/7/44 39/31/44
f 39/43/45 37/40/45 25/21/45 26/22/45
f 36/3/46 34/20/46 30/17/46 28/2/46
f 41/41/1 29/38/1 25/21/1 37/40/1
f 49/44/47 50/47/47 57/46/47 56/45/47
f 50/47/48 51/49/48 58/48/48 57/46/48
f 51/49/49 52/51/49 59/50/49 58/48/49
f 52/52/50 53/55/50 60/54/50 59/53/50
f 53/55/51 54/57/51 61/56/51 60/54/51
f 54/57/52 55/59/52 62/58/52 61/56/52
f 55/59/53 49/44/53 56/45/53 62/58/53
f 56/45/54 57/46/54 64/61/54 63/60/54
f 57/46/55 58/48/55 65/62/55 64/61/55
f 58/48/56 59/50/56 66/63/56 65/62/56
f 59/53/57 60/54/57 67/65/57 66/64/57
f 60/54/58 61/56/58 68/66/58 67/65/58
f 61/56/59 62/58/59 69/67/59 68/66/59
f 62/58/60 56/45/60 63/60/60 69/67/60
f 63/60/61 64/61/61 71/69/61 70/68/61
f 64/61/62 65/62/62 72/70/62 71/69/62
f 65/62/63 66/63/63 73/71/63 72/70/63
f 66/64/64 67/65/64 74/73/64 73/72/64
f 67/65/65 68/66/65 75/74/65 74/73/65
f 68/66/66 69/67/66 76/75/66 75/74/66
f 69/67/67 63/60/67 70/68/67 76/75/67
f 70/68/68 71/69/68 78/77/68 77/76/68
f 71/69/69 72/70/69 79/78/69 78/77/69
f 72/70/70 73/71/70 80/79/70 79/78/70
f 73/72/71 74/73/71 81/81/71 80/80/71
f 74/73/72 75/74/72 82/82/72 81/81/72
f 75/74/73 76/75/73 83/83/73 82/82/73
f 76/75/74 70/68/74 77/76/74 83/83/74
f 77/84/75 78/87/75 85/86/75 84/85/75
f 78/87/76 79/89/76 86/88/76 85/86/76
f 79/89/77 80/91/77 87/90/77 86/88/77
f 80/92/78 81/95/78 88/94/78 87/93/78
f 81/95/79 82/97/79 89/96/79 88/94/79
f 82/97/80 83/99/80 90/98/80 89/96/80
f 83/99/81 77/84/81 84/85/81 90/98/81
f 84/85/82 85/86/82 92/101/82 91/100/82
f 85/86/83 86/88/83 93/102/83 92/101/83
f 86/88/84 87/90/84 94/103/84 93/102/84
f 87/93/85 88/94/85 95/105/85 94/104/85
f 88/94/86 89/96/86 96/106/86 95/105/86
f 89/96/87 90/98/87 97/107/87 96/106/87
f 90/98/88 84/85/88 91/100/88 97/107/88
f 91/100/89 92/101/89 99/109/89 98/108/89
f 92/101/90 93/102/90 100/110/90 99/109/90
f 93/102/91 94/103/91 101/111/91 100/110/91
f 94/104/92 95/105/92 102/113/92 101/112/92
f 95/105/93 96/106/93 103/114/93 102/113/93
f 96/106/94 97/107/94 104/115/94 103/114/94
f 97/107/95 91/100/95 98/108/95 104/115/95
f 98/108/96 99/109/96 106/117/96 105/116/96
f 99/109/97 100/110/97 107/118/97 106/117/97
f 100/110/98 101/111/98 108/119/98 107/118/98
f 101/112/99 102/113/99 109/121/99 108/120/99
f 102/113/100 103/114/100 110/122/100 109/121/100
f 103/114/101 104/115/101 111/123/101 110/122/101
f 104/115/102 98/108/102 105/116/102 111/123/102
f 105/116/103 106/117/103 50/47/103 49/44/103
f 106/117/104 107/118/104 51/49/104 50/47/104
f 107/118/105 108/119/105 52/51/105 51/49/105
f 108/120/106 109/121/106 53/55/106 52/52/106
f 109/121/107 110/122/107 54/57/107 53/55/107
f 110/122/108 111/123/108 55/59/108 54/57/108
f 111/123/109 105/116/109 49/44/109 55/59/109
usemtl Material.001
f 129/1/1 133/4/1 123/3/1 115/2/1
f 135/5/2 127/8/2 125/7/2 130/6/2
f 122/9/3 134/12/3 131/11/3 120/10/3
f 113/13/4 119/16/4 132/15/4 126/14/4
f 117/17/5 121/20/5 118/19/5 114/18/5
f 112/21/6 114/23/6 113/22/6
f 115/2/7 117/25/7 116/24/7
f 118/26/8 120/10/8 119/27/8
f 121/28/9 123/3/9 122/29/9
f 124/30/10 126/31/10 125/7/10
f 127/32/11 129/1/11 128/33/11
f 130/6/12 132/35/12 131/34/12
f 133/4/13 135/37/13 134/36/13
f 129/1/14 127/32/14 135/37/14 133/4/14
f 115/2/15 116/24/15 128/33/15 129/1/15
f 114/18/16 112/21/16 116/38/16 117/17/16
f 134/39/17 135/5/17 130/6/17 131/34/17
f 120/10/18 118/19/18 121/20/18 122/9/18
f 124/40/19 125/7/19 127/8/19 128/41/19
f 119/27/20 120/10/20 131/11/20 132/42/20
f 113/13/21 114/18/21 118/19/21 119/16/21
f 133/4/22 134/36/22 122/29/22 123/3/22
f 132/35/23 130/6/23 125/7/23 126/31/23
f 126/43/24 124/40/24 112/21/24 113/22/24
f 123/3/25 121/20/25 117/17/25 115/2/25
f 128/41/26 116/38/26 112/21/26 124/40/26
