# Blender 4.0.1
# www.blender.org
mtllib Gate.mtl
o BezierCurve
v -1.000000 0.000000 0.000000
v -0.874711 0.000000 -0.105035
v -0.747685 0.000000 -0.173611
v -0.617188 0.000000 -0.210937
v -0.481481 0.000000 -0.222222
v -0.338831 0.000000 -0.212674
v -0.187500 0.000000 -0.187500
v -0.025752 0.000000 -0.151910
v 0.148148 0.000000 -0.111111
v 0.335937 0.000000 -0.070312
v 0.539352 0.000000 -0.034722
v 0.760127 0.000000 -0.009549
v 1.000000 0.000000 0.000000
l 1 2
l 2 3
l 3 4
l 4 5
l 5 6
l 6 7
l 7 8
l 8 9
l 9 10
l 10 11
l 11 12
l 12 13
o Cube.001
v 0.129632 -0.136200 0.321427
v 0.260885 0.508917 1.921862
v 0.378098 0.508917 0.305116
v 0.260885 0.508917 -2.060005
v 0.129632 -0.136200 -0.397592
v 0.378098 0.508917 -0.443259
v 0.360580 5.044919 0.321428
v 0.129632 5.044919 0.961918
v 0.129632 5.685410 0.321428
v 0.360580 5.044919 -0.397591
v 0.129632 5.685410 -0.397591
v 0.129632 5.044919 -1.038082
v -0.129632 -0.136200 0.321427
v -0.372506 0.508917 0.305116
v -0.255293 0.508917 1.921862
v -0.372506 0.508917 -0.443259
v -0.129632 -0.136200 -0.397592
v -0.255293 0.508917 -2.060005
v -0.360580 5.044919 0.321428
v -0.129632 5.685410 0.321428
v -0.129632 5.044919 0.961918
v -0.129632 5.044919 -1.038082
v -0.129632 5.685410 -0.397591
v -0.360580 5.044919 -0.397591
v -0.255293 0.720010 -2.813946
v -0.129632 5.285740 -1.898198
v 0.260885 0.720010 -2.813946
v 0.129632 5.285740 -1.898198
v 0.129632 5.267238 1.755953
v -0.129632 5.267238 1.755953
v 0.260885 0.703792 2.617879
v -0.255293 0.703792 2.617879
v 0.129632 5.931756 0.961918
v -0.129632 5.931756 0.961918
v -0.129632 5.931756 -1.038082
v 0.129632 5.931756 -1.038082
v -0.129632 6.172577 -1.898198
v 0.129632 6.172577 -1.898198
v 0.129632 6.154075 1.755953
v -0.129632 6.154075 1.755953
v 0.269134 -0.165543 -2.118094
v -0.269845 -0.165543 -2.118094
v -0.269845 -0.165543 2.039671
v 0.269134 -0.165543 2.039671
v 0.238427 0.070046 -2.882024
v -0.269845 0.054875 -2.905340
v -0.269845 0.037940 2.766434
v 0.269134 0.037940 2.766434
v 1.127015 5.044919 -1.038082
v 1.127015 5.285740 -1.898198
v 1.127015 5.267238 1.755953
v 1.127015 5.044919 0.961918
v 1.127015 5.931756 -1.038082
v 1.127015 6.172577 -1.898198
v 1.127015 6.154075 1.755953
v 1.127015 5.931756 0.961918
v 1.206672 0.543966 -2.071474
v 1.206672 0.755059 -2.825415
v 1.206672 0.738840 2.606411
v 1.206672 0.543966 1.910394
v 1.240222 -0.140479 -2.320862
v 1.206672 0.116917 -3.155504
v 1.240222 0.081839 3.015796
v 1.240222 -0.140479 2.221762
v 0.129632 7.274141 0.961918
v -0.129632 7.274141 0.961918
v -0.129632 7.274141 -1.038082
v 0.129632 7.274141 -1.038082
v -0.129632 7.514962 -1.898198
v 0.129632 7.514962 -1.898198
v 0.129632 7.496460 1.755953
v -0.129632 7.496460 1.755953
v -0.129632 5.931757 0.999842
v 0.129632 5.931757 0.999842
v -0.129632 7.274142 0.999842
v 0.129632 7.274142 0.999842
v -0.129632 5.285740 -2.346849
v 0.129632 5.285740 -2.346849
v -0.129632 6.172577 -2.346849
v 0.129632 6.172577 -2.346849
v -0.129632 7.514962 -2.346850
v 0.129632 7.514962 -2.346850
v 0.129632 5.267238 2.264087
v -0.129632 5.267238 2.264087
v 0.129632 6.154075 2.264087
v -0.129632 6.154075 2.264087
v 0.129632 7.496460 2.264087
v -0.129632 7.496460 2.264087
v 0.333352 8.575594 -0.636321
v 0.333352 8.718038 -1.145072
v 0.333352 8.707094 1.016324
v 0.333352 8.575594 0.546660
v 0.923295 8.575594 -0.636321
v 0.923295 8.718038 -1.145072
v 0.923295 8.707094 1.016324
v 0.923295 8.575594 0.546660
v 0.129632 6.154075 2.300156
v 0.129632 5.267238 2.300156
v 1.127015 6.154075 2.300156
v 1.127015 5.267238 2.300156
v 0.129632 6.172577 -2.356001
v 0.129632 5.285740 -2.356001
v 1.127015 6.172577 -2.356001
v 1.127015 5.285740 -2.356001
v 0.129632 1.185576 -1.898198
v 1.127015 1.185576 -1.898198
v 1.127015 1.167074 1.755953
v 0.129632 1.167074 1.755953
v 1.127015 1.167074 2.300156
v 0.129632 1.167074 2.300156
v 0.129632 1.185576 -2.356001
v 1.127015 1.185576 -2.356001
v 0.236681 1.162051 -1.703067
v 0.236681 1.373144 -2.457008
v 0.236681 1.356926 2.290423
v 0.236681 1.162051 1.594407
v 1.182468 1.197100 -1.714535
v 1.182468 1.408193 -2.468476
v 1.182468 1.391975 2.278955
v 1.182468 1.197100 1.582938
v 0.129632 5.044919 -1.087090
v 0.129632 5.931756 -1.087090
v 1.127015 5.044919 -1.087090
v 1.127015 5.931756 -1.087090
v 0.129632 -0.686804 0.323754
v 0.260885 -0.041687 1.924189
v 0.260885 -0.041687 -2.057679
v 0.129632 -0.686804 -0.395265
v -0.255293 -0.041687 1.924189
v -0.129632 -0.686804 0.323754
v -0.129632 -0.686804 -0.395265
v -0.255293 -0.041687 -2.057679
v 0.129632 -0.996280 0.325765
v 0.260885 -0.351163 1.926200
v 0.260885 -0.351163 -2.055668
v 0.129632 -0.996280 -0.393254
v -0.255293 -0.351163 1.926200
v -0.129632 -0.996280 0.325765
v -0.129632 -0.996280 -0.393254
v -0.255293 -0.351163 -2.055668
v 0.274396 -0.598005 -2.107572
v -0.264583 -0.598005 -2.107572
v -0.264583 -0.565707 2.022365
v 0.274396 -0.565707 2.022365
v 0.243688 -0.497768 -2.900695
v -0.264583 -0.516735 -2.921043
v -0.264583 -0.564070 2.777075
v 0.274396 -0.564070 2.777075
v 0.278519 -1.005210 -2.130136
v -0.260461 -1.005210 -2.130136
v -0.260461 -0.972912 1.999801
v 0.278519 -0.972912 1.999801
v 0.247811 -0.904973 -2.923259
v -0.260461 -0.923939 -2.943608
v -0.260461 -0.971274 2.754511
v 0.278519 -0.971274 2.754511
v 0.243134 -0.844115 -2.110095
v 0.212426 -0.796175 -2.908088
v 0.243134 -0.817186 2.768408
v 0.243134 -0.867809 2.015396
v 1.214222 -0.867793 -2.313029
v 1.180672 -0.815415 -3.184887
v 1.214222 -0.825189 3.021479
v 1.214222 -0.880497 2.198765
vn -0.9998 0.0206 -0.0058
vn -1.0000 0.0026 -0.0000
vn -0.0000 1.0000 -0.0000
vn -0.9998 0.0211 0.0059
vn 1.0000 0.0039 -0.0000
vn 0.9316 -0.3571 0.0675
vn 0.9294 -0.3627 -0.0674
vn 0.8909 0.3212 0.3212
vn 0.8909 0.3212 -0.3212
vn -0.9343 -0.3500 0.0677
vn -0.9321 -0.3557 -0.0676
vn -0.8909 0.3212 0.3212
vn -0.8909 0.3212 -0.3212
vn -0.9878 0.0329 -0.1524
vn 0.9967 -0.0003 -0.0816
vn 0.9332 -0.3594 -0.0000
vn -0.9407 0.3392 -0.0000
vn 0.9407 0.3392 -0.0000
vn -0.9359 -0.3523 -0.0000
vn -0.0000 0.7071 0.7071
vn 0.9878 0.0320 0.1524
vn -0.0000 0.7071 -0.7071
vn -0.9878 0.0308 0.1524
vn -1.0000 -0.0000 -0.0000
vn 0.9877 0.0341 -0.1524
vn 1.0000 -0.0000 -0.0000
vn -0.0000 0.1967 -0.9805
vn -0.9996 0.0260 0.0073
vn 0.9996 0.0272 0.0076
vn -0.0000 0.1856 0.9826
vn -0.9996 0.0261 -0.0073
vn 0.9996 0.0273 -0.0076
vn -0.0000 0.2783 0.9605
vn -0.0000 -0.0000 1.0000
vn -0.0000 -0.0000 -1.0000
vn -0.9999 -0.0105 -0.0020
vn -0.9999 -0.0105 0.0015
vn 0.0208 0.1198 -0.9926
vn -0.0058 0.4480 0.8940
vn -0.9984 0.0331 0.0453
vn -0.0000 0.2178 0.9760
vn -0.0000 -0.0858 0.9963
vn -0.0000 -0.1721 -0.9851
vn -0.0000 -0.9630 0.2696
vn 0.9971 0.0737 0.0206
vn -0.0000 -1.0000 -0.0000
vn -0.0000 -0.9630 -0.2696
vn 0.9995 0.0306 -0.0121
vn 0.9990 0.0434 -0.0122
vn 0.0939 -0.2972 -0.9502
vn -0.9994 -0.0325 0.0091
vn -0.2736 0.0375 -0.9611
vn -0.1530 0.2943 -0.9434
vn -0.1293 0.3819 0.9151
vn 0.1151 -0.2159 0.9696
vn -0.0000 0.9630 0.2696
vn -0.0000 0.9630 -0.2696
vn -0.0000 0.2837 -0.9589
vn -0.9971 0.0737 0.0206
vn -0.0000 -0.1502 0.9887
vn 0.9971 0.0736 -0.0206
vn -0.0000 -0.1552 -0.9879
vn -0.9971 0.0736 -0.0206
vn -0.0324 0.9625 0.2695
vn -0.0389 0.9622 -0.2694
vn 0.0284 -0.4786 0.8776
vn 0.9994 0.0321 0.0090
vn 0.0058 -0.4480 -0.8940
vn 0.9994 0.0325 -0.0091
vn -0.0284 0.4786 -0.8776
vn -0.9994 -0.0321 -0.0090
vn -0.0000 -0.0065 -1.0000
vn -0.0000 0.0065 1.0000
vn -0.9969 -0.0003 -0.0781
vn -0.9971 0.0003 0.0755
vn -0.0000 -0.0042 -1.0000
vn 0.9969 0.0003 0.0788
vn -0.0000 0.0042 1.0000
vn -0.0000 -0.9323 -0.3618
vn -0.0000 -0.9275 0.3739
vn -0.9969 -0.0005 -0.0781
vn 0.9967 -0.0005 -0.0815
vn -0.9971 0.0005 0.0756
vn 0.9969 0.0005 0.0789
vn 0.9992 0.0122 -0.0371
vn -0.0000 -0.0553 0.9985
vn 0.0419 0.0305 -0.9987
vn -0.0000 0.0243 0.9997
vn 0.9999 0.0105 -0.0015
vn -0.0000 0.0177 0.9998
vn 0.9993 0.0108 -0.0371
vn -0.0000 0.0432 -0.9991
vn 0.0202 -0.9934 -0.1126
vn -0.0000 -1.0000 0.0022
vn -0.0000 0.0553 -0.9985
vn -0.9999 -0.0101 -0.0000
vn -0.9999 -0.0101 -0.0010
vn 0.0379 0.0557 -0.9977
vn 0.9999 0.0101 -0.0000
vn -0.0257 -0.9974 0.0671
vn -0.0366 -0.9976 -0.0585
vn 0.9985 -0.0307 -0.0448
vn 0.1847 0.0255 -0.9825
vn 0.2045 0.0035 0.9789
vn 0.9995 -0.0316 0.0054
vn -0.2506 0.0116 0.9680
vn -0.9994 0.0335 -0.0057
vt 0.625000 0.169939
vt 0.455061 0.080061
vt 0.544939 0.080061
vt 0.544939 0.169939
vt 0.455061 0.169939
vt 0.455061 0.830061
vt 0.544939 0.830061
vt 0.544939 0.919939
vt 0.455061 0.919939
vt 0.205061 0.580061
vt 0.455061 0.580061
vt 0.544939 0.580061
vt 0.544939 0.669939
vt 0.455061 0.669939
vt 0.544939 0.419939
vt 0.625000 0.419939
vt 0.544939 0.500000
vt 0.294939 0.580061
vt 0.294939 0.500000
vt 0.375000 0.580061
vt 0.544939 0.750000
vt 0.625000 0.830061
vt 0.375000 0.669939
vt 0.294939 0.750000
vt 0.294939 0.669939
vt 0.544939 0.250000
vt 0.125000 0.580061
vt 0.205061 0.500000
vt 0.544939 0.000000
vt 0.625000 0.080061
vt 0.205061 0.669939
vt 0.205061 0.750000
vt 0.125000 0.669939
vt 0.455061 0.419939
vt 0.455061 0.000000
vt 0.544939 0.330061
vt 0.455061 0.330061
vt 0.625000 0.919939
vt 0.705061 0.580061
vt 0.705061 0.669939
vt 0.794939 0.580061
vt 0.794939 0.669939
vt 0.625000 0.330061
s 0
usemtl Material.001
f 28/1/1 56/1/1 60/1/1 45/1/1
f 37/2/2 29/5/2 27/4/2 32/3/2
f 24/6/3 36/9/3 33/8/3 22/7/3
f 38/10/4 59/10/4 55/10/4 31/10/4
f 20/21/8 22/7/8 21/22/8
f 23/23/9 25/25/9 24/24/9
f 26/26/10 28/1/10 27/4/10
f 29/27/11 31/10/11 30/28/11
f 32/3/12 34/30/12 33/29/12
f 35/31/13 37/33/13 36/32/13
f 31/10/14 29/27/14 37/33/14 35/31/14
f 36/35/17 37/2/17 32/3/17 33/29/17
f 22/7/18 20/13/18 23/14/18 24/6/18
f 26/36/19 27/4/19 29/5/19 30/37/19
f 21/22/20 22/7/20 33/8/20 34/38/20
f 35/31/22 36/32/22 24/24/22 25/25/22
f 34/30/23 32/3/23 27/4/23 28/1/23
f 30/37/24 144/37/24 143/36/24 26/36/24
f 38/10/27 39/31/27 41/25/27 40/18/27
f 35/31/28 39/31/28 38/10/28 31/10/28
f 43/30/24 53/30/24 47/30/24 34/30/24
f 44/39/30 42/40/30 43/42/30 45/41/30
f 28/1/31 45/1/31 43/30/31 34/30/31
f 43/30/24 97/30/24 99/30/24 53/30/24
f 46/22/26 78/22/26 84/22/26 52/22/26
f 25/25/34 49/25/34 48/31/34 35/31/34
f 34/38/35 47/38/35 46/22/35 21/22/35
f 35/31/24 48/31/24 50/31/24 39/31/24
f 50/31/24 92/31/24 90/31/24 39/31/24
f 59/10/36 159/10/36 155/10/36 55/10/36
f 56/1/37 156/1/37 160/1/37 60/1/37
f 40/18/38 58/18/38 59/10/38 38/10/38
f 72/39/39 132/39/39 128/39/39 44/39/39
f 58/18/40 171/18/40 170/18/40 54/18/40
f 45/41/41 60/41/41 61/39/41 44/39/41
f 31/10/42 55/10/42 54/18/42 17/18/42
f 15/16/43 57/16/43 56/43/43 28/43/43
f 21/40/44 65/40/44 64/40/44 42/40/44
f 25/25/34 62/25/34 66/25/34 49/25/34
f 21/40/46 134/40/46 136/40/46 65/40/46
f 41/25/47 63/25/47 62/25/47 25/25/47
f 15/16/50 73/16/50 77/16/50 57/16/50
f 44/39/51 128/39/51 129/39/51 15/39/51
f 75/18/52 175/18/52 171/18/52 58/18/52
f 40/18/53 71/18/53 75/18/53 58/18/53
f 61/39/54 76/39/54 72/39/54 44/39/54
f 54/18/55 74/18/55 70/18/55 17/18/55
f 81/25/56 83/25/56 82/31/56 80/31/56
f 79/38/57 85/38/57 84/22/57 78/22/57
f 48/31/24 80/31/24 82/31/24 50/31/24
f 49/25/46 87/25/46 86/31/46 48/31/46
f 53/30/24 85/30/24 79/30/24 47/30/24
f 51/25/26 83/25/26 81/25/26 49/25/26
f 39/31/46 90/31/46 91/25/46 41/25/46
f 47/38/35 79/38/35 78/22/35 46/22/35
f 87/25/34 89/25/34 88/31/34 86/31/34
f 80/31/3 88/31/3 89/25/3 81/25/3
f 48/31/24 86/31/24 88/31/24 80/31/24
f 90/31/35 92/31/35 93/25/35 91/25/35
f 92/31/35 94/31/35 95/25/35 93/25/35
f 83/25/3 95/25/3 94/31/3 82/31/3
f 82/31/24 94/31/24 92/31/24 50/31/24
f 41/25/26 91/25/26 93/25/26 51/25/26
f 98/40/34 100/40/34 101/42/34 99/42/34
f 96/40/34 98/40/34 99/42/34 97/42/34
f 42/40/46 96/40/46 97/42/46 43/42/46
f 52/40/26 98/40/26 96/40/26 42/40/26
f 85/38/3 101/38/3 100/22/3 84/22/3
f 53/30/24 99/30/24 101/30/24 85/30/24
f 49/25/59 102/25/59 103/25/59 51/25/59
f 52/22/63 104/22/63 105/22/63 46/22/63
f 111/40/34 113/40/34 112/40/34 110/40/34
f 42/40/24 111/40/24 110/40/24 52/40/24
f 114/25/35 116/25/35 117/25/35 115/25/35
f 51/25/24 114/25/24 115/25/24 41/25/24
f 117/25/35 125/25/35 124/25/35 115/25/35
f 120/40/46 122/40/46 123/40/46 121/40/46
f 118/25/46 124/25/46 125/25/46 119/25/46
f 115/25/24 124/25/24 118/25/24 41/25/24
f 64/40/35 120/40/35 121/40/35 42/40/35
f 41/25/34 118/25/34 119/25/34 63/25/34
f 42/40/24 121/40/24 123/40/24 111/40/24
f 111/40/34 123/40/34 122/40/34 113/40/34
f 126/18/64 130/18/64 131/18/64 127/18/64
f 128/39/65 132/39/65 133/39/65 129/39/65
f 70/18/66 130/18/66 126/18/66 17/18/66
f 15/16/68 129/16/68 133/16/68 73/16/68
f 40/18/70 127/18/70 131/18/70 71/18/70
f 17/18/71 126/18/71 127/18/71 40/18/71
f 135/22/35 137/22/35 136/22/35 134/22/35
f 46/22/24 135/22/24 134/22/24 21/22/24
f 140/18/72 148/18/72 153/10/72 145/10/72
f 142/43/73 150/43/73 147/16/73 139/16/73
f 144/37/46 141/34/46 138/15/46 143/36/46
f 26/26/74 143/26/74 142/1/74 28/1/74
f 31/10/75 145/10/75 144/28/75 30/28/75
f 17/18/76 140/18/76 145/10/76 31/10/76
f 28/43/78 142/43/78 139/16/78 15/16/78
f 148/18/79 149/19/79 152/28/79 153/10/79
f 150/43/80 151/36/80 146/15/80 147/16/80
f 143/26/81 151/26/81 150/1/81 142/1/81
f 138/15/72 146/15/72 151/36/72 143/36/72
f 144/37/73 152/37/73 149/34/73 141/34/73
f 145/10/83 153/10/83 152/28/83 144/28/83
f 154/18/85 162/18/85 166/18/85 158/18/85
f 160/41/86 168/41/86 169/39/86 161/39/86
f 58/18/87 158/18/87 159/10/87 59/10/87
f 55/10/88 155/10/88 154/18/88 54/18/88
f 61/16/89 161/16/89 157/16/89 57/16/89
f 60/41/90 160/41/90 161/39/90 61/39/90
f 54/18/91 154/18/91 158/18/91 58/18/91
f 57/16/92 157/16/92 156/43/92 56/43/92
f 163/10/93 167/10/93 166/18/93 162/18/93
f 165/16/94 169/16/94 168/43/94 164/43/94
f 157/16/95 165/16/95 164/43/95 156/43/95
f 156/1/96 164/1/96 168/1/96 160/1/96
f 159/10/97 167/10/97 163/10/97 155/10/97
f 158/18/98 166/18/98 167/10/98 159/10/98
f 155/10/86 163/10/86 162/18/86 154/18/86
f 161/16/99 169/16/99 165/16/99 157/16/99
f 173/16/100 177/16/100 176/16/100 172/16/100
f 171/18/101 175/18/101 174/18/101 170/18/101
f 77/16/103 177/16/103 173/16/103 57/16/103
f 54/18/104 170/18/104 174/18/104 74/18/104
f 61/39/106 172/39/106 176/39/106 76/39/106
f 57/16/107 173/16/107 172/16/107 61/16/107
usemtl Material.004
f 19/11/5 23/14/5 20/13/5 16/12/5
f 17/18/29 40/18/29 41/25/29 25/25/29
f 21/40/32 42/40/32 44/39/32 15/39/32
f 84/22/26 100/22/26 98/22/26 52/22/26
f 70/18/48 74/18/48 75/18/48 71/18/48
f 72/39/49 76/39/49 77/39/49 73/39/49
f 81/25/26 89/25/26 87/25/26 49/25/26
f 51/25/26 93/25/26 95/25/26 83/25/26
f 68/40/26 112/40/26 113/40/26 64/40/26
f 113/40/26 122/40/26 120/40/26 64/40/26
f 63/25/26 117/25/26 116/25/26 67/25/26
f 63/25/26 119/25/26 125/25/26 117/25/26
f 71/18/67 131/18/67 130/18/67 70/18/67
f 73/39/69 133/39/69 132/39/69 72/39/69
f 74/18/102 174/18/102 175/18/102 75/18/102
f 76/39/105 176/39/105 177/39/105 77/39/105
usemtl Material.005
f 14/15/6 16/17/6 15/16/6
f 17/18/7 19/20/7 18/19/7
f 15/16/15 139/16/15 138/15/15 14/15/15
f 16/12/16 14/15/16 18/34/16 19/11/16
f 15/39/21 16/12/21 20/13/21 21/40/21
f 25/25/25 23/14/25 19/11/25 17/18/25
f 14/15/26 138/15/26 141/34/26 18/34/26
f 68/40/33 108/40/33 104/40/33 52/40/33
f 67/25/3 116/25/3 114/25/3 51/25/3
f 63/25/26 67/25/26 66/25/26 62/25/26
f 65/40/26 69/40/26 68/40/26 64/40/26
f 52/40/3 110/40/3 112/40/3 68/40/3
f 67/25/45 107/25/45 106/25/45 66/25/45
f 104/22/57 108/22/57 109/22/57 105/22/57
f 102/25/56 106/25/56 107/25/56 103/25/56
f 51/25/58 103/25/58 107/25/58 67/25/58
f 66/25/60 106/25/60 102/25/60 49/25/60
f 69/40/61 109/40/61 108/40/61 68/40/61
f 46/22/62 105/22/62 109/22/62 69/22/62
f 69/22/3 137/22/3 135/22/3 46/22/3
f 65/40/26 136/40/26 137/40/26 69/40/26
f 18/19/77 141/19/77 140/18/77 17/18/77
f 139/16/82 147/16/82 146/15/82 138/15/82
f 141/19/84 149/19/84 148/18/84 140/18/84
o Cube.002
v 0.392246 3.254239 -0.008390
v 0.392246 2.274926 -0.970924
v 0.392246 2.291705 0.970924
v 0.392246 1.312392 0.008390
v -0.014956 3.254239 -0.008390
v -0.014956 2.274926 -0.970924
v -0.014956 2.291705 0.970924
v -0.014956 1.312392 0.008390
vn -0.0000 0.7132 0.7010
vn -0.0000 -0.7010 0.7132
vn -1.0000 -0.0000 -0.0000
vn -0.0000 -0.7132 -0.7010
vn 1.0000 -0.0000 -0.0000
vn -0.0000 0.7010 -0.7132
vt 0.625000 0.500000
vt 0.875000 0.500000
vt 0.875000 0.750000
vt 0.625000 0.750000
vt 0.375000 0.750000
vt 0.625000 1.000000
vt 0.375000 1.000000
vt 0.375000 0.000000
vt 0.625000 0.000000
vt 0.625000 0.250000
vt 0.375000 0.250000
vt 0.125000 0.500000
vt 0.375000 0.500000
vt 0.125000 0.750000
s 0
usemtl Material.004
f 178/44/108 182/45/108 184/46/108 180/47/108
f 181/48/109 180/47/109 184/49/109 185/50/109
f 185/51/110 184/52/110 182/53/110 183/54/110
f 183/55/111 179/56/111 181/48/111 185/57/111
f 179/56/112 178/44/112 180/47/112 181/48/112
f 183/54/113 182/53/113 178/44/113 179/56/113
