# Blender 4.0.1
# www.blender.org
mtllib Machine.mtl
o Cube
v 0.758868 1.974840 -4.597350
v 0.758868 2.602351 -3.488779
v 1.000000 1.974840 -3.488779
v 0.758868 -2.602351 -3.488779
v 0.758868 -1.974840 -4.597350
v 1.000000 -1.974840 -3.488779
v 1.000000 1.974840 3.488779
v 0.758868 2.602351 3.488779
v 0.758868 1.974840 4.597350
v 1.000000 -1.974840 3.488779
v 0.758868 -1.974840 4.597350
v 0.758868 -2.602351 3.488779
v -0.758868 1.974840 -4.597350
v -1.000000 1.974840 -3.488779
v -0.758868 2.602351 -3.488779
v -1.000000 -1.974840 -3.488779
v -0.758868 -1.974840 -4.597350
v -0.758868 -2.602351 -3.488779
v -1.000000 1.974840 3.488779
v -0.758868 1.974840 4.597350
v -0.758868 2.602351 3.488779
v -0.758868 -2.602351 3.488779
v -0.758868 -1.974840 4.597350
v -1.000000 -1.974840 3.488779
v 1.000000 1.974840 0.000000
v 1.000000 -1.974840 0.000000
v 1.000000 0.000000 3.488779
v 1.000000 -1.974840 1.744390
v 1.000000 1.974840 1.744390
v 1.000000 0.000000 0.000000
v 1.785769 0.000000 3.488779
v 1.785769 1.974840 3.488779
v 1.785769 -1.974840 1.744390
v 1.785769 -1.974840 3.488779
v 1.785769 1.974840 1.744390
v 1.785769 1.974840 0.000000
v 1.785769 0.000000 0.000000
v 1.785769 -1.974840 0.000000
v 1.966016 0.000000 0.000000
v 1.966016 -1.974840 1.744390
v 1.966016 0.000000 3.488779
v 1.000000 1.974840 -1.744390
v 1.000000 -1.974840 -1.744390
v 1.000000 0.000000 -3.488779
v 1.000000 0.000000 -1.744390
v 1.348634 1.589168 -2.085056
v 1.348634 1.589168 -3.148113
v 1.348634 0.385672 -3.148113
v 1.348634 0.385672 -2.085056
v 0.876664 1.589168 -2.085056
v 0.876664 1.589168 -3.148113
v 0.876664 0.385672 -3.148113
v 0.876664 0.385672 -2.085056
v 1.555803 -0.334157 -3.193616
v 1.555803 -1.640683 -3.193616
v 1.555803 -1.640683 -2.039553
v 1.555803 -0.334157 -2.039553
v 1.200636 -0.334157 -3.193616
v 1.200636 -1.640683 -3.193616
v 1.200636 -1.640683 -2.039553
v 1.200636 -0.334157 -2.039553
v 0.758868 0.000000 -4.597350
v -0.758868 0.000000 -4.597350
v 0.457404 0.392256 -4.933961
v 0.457404 1.582583 -4.933961
v -0.457404 1.582583 -4.933961
v -0.457404 0.392256 -4.933961
v 0.457404 0.392256 -4.170732
v 0.457404 1.582583 -4.170732
v -0.457404 1.582583 -4.170732
v -0.457404 0.392256 -4.170732
v 0.758868 -3.992646 -3.488779
v 0.758868 -3.987399 -4.597350
v 0.758868 -3.980254 4.597350
v 0.758868 -3.992646 3.488779
v -0.758868 -3.987399 -4.597350
v -0.758868 -3.992646 -3.488779
v -0.758868 -3.992646 3.488779
v -0.758868 -3.980254 4.597350
v 2.454264 -1.491826 1.744390
v 2.549675 0.000000 2.995396
v 2.549675 1.416276 2.995396
v 2.549675 -1.416276 1.744390
v 2.549675 -1.416276 2.995396
v 2.549675 1.416276 1.744390
v 2.549675 1.416276 0.493383
v 2.549675 0.000000 0.493383
v 2.549675 -1.416276 0.493383
v 1.831004 1.974840 -1.744390
v 1.831004 1.974840 -3.488779
v 1.831004 -0.000000 -3.488779
v 1.831004 -0.000000 -1.744390
v 2.179639 1.589168 -2.085056
v 2.179639 1.589168 -3.148113
v 2.179639 0.385672 -3.148113
v 2.179639 0.385672 -2.085056
v 1.690313 -1.974840 -3.488779
v 1.690313 -1.974840 -1.744390
v 1.690313 0.000000 -3.488779
v 1.690313 0.000000 -1.744390
v 2.246117 -1.640683 -3.193616
v 2.246117 -1.640683 -2.039553
v 2.246117 -0.334157 -3.193616
v 2.246117 -0.334157 -2.039553
v 1.348634 1.127593 -2.085056
v 1.000000 1.513264 -1.744390
v 1.348634 1.127593 -3.148113
v 1.000000 1.513264 -3.488779
v 2.179639 1.127593 -2.085056
v 1.831004 1.513264 -1.744390
v 2.179639 1.127593 -3.148113
v 1.831004 1.513264 -3.488779
v 1.000000 -1.518980 -1.744390
v 1.555803 -1.184823 -2.039553
v 1.555803 -1.184823 -3.193616
v 1.000000 -1.518980 -3.488779
v 1.690313 -1.518980 -1.744390
v 2.246117 -1.184823 -2.039553
v 2.246117 -1.184823 -3.193616
v 1.690313 -1.518980 -3.488779
vn -0.0000 -1.0000 -0.0000
vn -1.0000 -0.0000 -0.0000
vn -0.0000 -0.0000 1.0000
vn -0.0000 1.0000 -0.0000
vn 0.9148 0.3515 -0.1990
vn 0.9148 -0.3515 -0.1990
vn 0.9148 0.3515 0.1990
vn 0.9148 -0.3515 0.1990
vn -0.9148 0.3515 -0.1990
vn -0.9148 -0.3515 -0.1990
vn -0.9148 0.3515 0.1990
vn -0.9148 -0.3515 0.1990
vn -0.9335 -0.3587 -0.0000
vn -0.0000 -0.0000 -1.0000
vn 0.9772 -0.0000 -0.2125
vn -0.9772 -0.0000 0.2125
vn 0.9772 -0.0000 0.2125
vn -0.9772 -0.0000 -0.2125
vn -0.0000 0.8703 0.4926
vn 0.9335 0.3587 -0.0000
vn -0.9335 0.3587 -0.0000
vn -0.0000 0.8703 -0.4926
vn 0.9335 -0.3587 -0.0000
vn 0.7449 -0.0000 -0.6671
vn 1.0000 -0.0000 -0.0000
vn -0.0000 -0.6620 -0.7495
vn 0.5902 0.8072 -0.0000
vn -0.4357 0.5959 -0.6746
vn 0.5902 -0.8072 -0.0000
vn -0.0000 0.6620 -0.7495
vn -0.0000 -0.6620 0.7495
vn -0.0000 0.6620 0.7495
vn 0.6989 -0.0000 0.7152
vn 0.4690 -0.0000 0.8832
vn 0.6989 -0.0000 -0.7152
vn 0.4690 -0.0000 -0.8832
vn -0.7449 -0.0000 -0.6671
vn -0.0000 0.6512 -0.7589
vn -0.0000 -0.6512 -0.7589
vn -0.0000 -1.0000 -0.0047
vn -0.0000 -0.9999 0.0112
vn 0.5425 -0.0000 -0.8400
vn -0.4357 -0.5959 0.6746
vn 0.5425 -0.0000 0.8400
vn -0.4357 -0.5959 -0.6746
vn -0.4357 0.5959 0.6746
vn 0.7418 0.6706 -0.0000
vn 0.7418 -0.6706 -0.0000
vn 0.5153 0.8570 -0.0000
vn 0.5153 -0.8570 -0.0000
vn -0.6989 -0.0000 -0.7152
vn -0.6989 -0.0000 0.7152
vn -0.4690 -0.0000 -0.8832
vn -0.4690 -0.0000 0.8832
vt 0.155142 0.530142
vt 0.344858 0.530142
vt 0.344858 0.719858
vt 0.155142 0.719859
vt 0.405142 0.030142
vt 0.594858 0.030142
vt 0.594858 0.219858
vt 0.405142 0.219858
vt 0.405142 0.780142
vt 0.594858 0.780142
vt 0.594858 0.969858
vt 0.405142 0.969859
vt 0.655142 0.530142
vt 0.844858 0.530142
vt 0.844858 0.719858
vt 0.655142 0.719859
vt 0.594858 0.469858
vt 0.625000 0.469858
vt 0.594858 0.500000
vt 0.344858 0.500000
vt 0.375000 0.530142
vt 0.594858 0.750000
vt 0.625000 0.780142
vt 0.375000 0.719858
vt 0.344858 0.750000
vt 0.594858 0.250000
vt 0.625000 0.219858
vt 0.125000 0.530142
vt 0.155142 0.500000
vt 0.594858 0.000000
vt 0.625000 0.030142
vt 0.155142 0.750000
vt 0.125000 0.719858
vt 0.472196 0.507986
vt 0.472196 0.528995
vt 0.726731 0.398269
vt 0.500000 0.398269
vt 0.273269 0.398269
vt 0.273269 0.254180
vt 0.500000 0.254180
vt 0.726731 0.254180
vt 0.405142 0.000000
vt 0.726731 0.995820
vt 0.273269 0.995820
vt 0.273269 0.851731
vt 0.500000 0.851731
vt 0.726731 0.851731
vt 0.594858 0.280142
vt 0.500000 0.280142
vt 0.405142 0.280142
vt 0.625000 0.969858
vt 0.929793 0.218745
vt 0.929793 1.114921
vt 0.645030 1.114921
vt 0.645030 0.890877
vt 0.645030 0.666833
vt 0.645030 0.442789
vt 0.645030 0.218745
vt 0.625000 0.280142
vt 0.409446 0.803135
vt 0.409446 0.446865
vt 0.522652 0.446865
vt 0.522652 0.535932
vt 0.522652 0.625000
vt 0.522652 0.714068
vt 0.522652 0.803136
vt 0.493204 0.528995
vt 0.482700 0.528995
vt 0.618803 0.000058
vt 0.618804 0.500000
vt 0.618803 0.999942
vt 0.285509 0.999942
vt 0.285509 0.500000
vt 0.285509 0.000058
vt 0.594858 0.719858
vt 0.500000 0.719858
vt 0.594858 0.672429
vt 0.000000 0.000000
vt 0.405142 0.672429
vt 0.405142 0.625000
vt 0.525011 0.672429
vt 0.525011 0.684935
vt 0.525011 0.659924
vt 0.474989 0.672429
vt 0.474989 0.659924
vt 0.500000 0.625000
vt 0.405142 0.719859
vt 0.594858 0.625000
vt 0.506922 0.555587
vt 0.500000 0.555587
vt 0.493078 0.555587
vt 0.594858 0.577571
vt 0.500000 0.577571
vt 0.594858 0.530142
vt 0.500000 0.549154
vt 0.518810 0.549154
vt 0.443402 0.555980
vt 0.538260 0.555980
vt 0.538260 0.603409
vt 0.443402 0.603409
vt 0.500000 0.558559
vt 0.500000 0.530142
vt 0.405142 0.577571
vt 0.481190 0.549154
vt 0.405142 0.530142
vt 0.375612 0.882034
vt 0.470471 0.882034
vt 0.470471 0.929463
vt 0.375612 0.929463
vt 0.481190 0.558559
vt 0.500000 0.469858
vt 0.405142 0.469858
vt 0.482700 0.507986
vt 0.493204 0.507986
vt 0.442287 0.739566
vt 0.442287 0.723453
vt 0.416604 0.571745
vt 0.416604 0.584587
vt 0.416604 0.665413
vt 0.416604 0.678255
vt 0.500000 0.659924
vt 0.500000 0.684935
vt 0.474989 0.684935
vt 0.534908 0.545129
vt 0.534908 0.562583
vt 0.500000 0.545129
vt 0.500000 0.562583
vt 0.465092 0.545129
vt 0.465092 0.562583
s 0
usemtl Material.003
f 18/1/1 4/2/1 12/3/1 22/4/1
f 11/9/3 9/10/3 20/11/3 23/12/3
f 2/13/4 15/14/4 21/15/4 8/16/4
f 1/17/5 2/18/5 3/19/5
f 7/22/7 8/23/7 9/10/7
f 10/24/8 11/25/8 12/3/8
f 13/26/9 14/7/9 15/27/9
f 16/28/10 17/29/10 18/1/10
f 19/6/11 20/30/11 21/31/11
f 22/4/12 23/32/12 24/33/12
f 18/1/13 22/4/13 24/33/13 16/28/13
f 17/34/14 5/35/14 73/35/14 76/34/14
f 23/42/16 20/30/16 19/6/16 24/5/16
f 13/48/18 63/49/18 17/50/18 16/8/18 14/7/18
f 8/23/19 21/51/19 20/11/19 9/10/19
f 22/4/14 12/3/14 75/3/14 78/4/14
f 21/31/21 15/27/21 14/7/21 19/6/21
f 15/59/22 2/18/22 1/17/22 13/48/22
f 12/60/23 4/61/23 6/62/23 43/63/23 26/64/23 28/65/23 10/66/23
f 1/67/24 62/68/24 64/68/24 65/67/24
f 7/75/3 27/76/3 31/76/3 32/75/3
f 29/77/4 7/75/4 32/75/4 35/77/4
f 27/78/26 29/78/26 35/78/26 31/78/26
f 28/79/1 26/80/1 38/80/1 33/79/1
f 35/81/27 32/82/27 82/82/27 85/81/27
f 33/78/28 31/78/28 81/78/28 83/78/28
f 36/83/27 35/81/27 85/81/27 86/83/27
f 33/84/29 38/85/29 88/85/29 83/84/29
f 26/80/14 30/86/14 37/86/14 38/80/14
f 28/78/30 27/78/30 31/78/30 33/78/30
f 10/87/1 28/79/1 33/79/1 34/87/1
f 30/86/14 25/88/14 36/88/14 37/86/14
f 27/76/3 10/87/3 34/87/3 31/76/3
f 29/78/31 30/78/31 37/78/31 35/78/31
f 25/88/4 29/77/4 35/77/4 36/88/4
f 30/78/32 28/78/32 33/78/32 37/78/32
f 26/80/4 25/88/4 30/86/4
f 42/89/33 45/90/33 49/90/33 46/89/33
f 45/90/34 43/91/34 56/91/34 57/90/34
f 46/92/14 49/93/14 53/93/14 50/92/14
f 46/92/1 47/94/1 94/94/1 93/92/1
f 49/93/32 45/93/32 92/93/32 96/93/32
f 44/95/35 3/96/35 47/96/35 48/95/35
f 47/94/1 46/92/1 50/92/1 51/94/1
f 49/101/4 48/95/4 52/95/4 53/101/4
f 48/102/3 47/94/3 51/94/3 52/102/3
f 57/93/14 56/103/14 60/103/14 61/93/14
f 6/104/36 44/95/36 54/95/36 55/104/36
f 57/93/1 54/102/1 103/102/1 104/93/1
f 55/105/3 54/102/3 58/102/3 59/105/3
f 54/102/1 57/93/1 61/93/1 58/102/1
f 56/110/4 55/104/4 59/104/4 60/110/4
f 17/50/14 63/49/14 62/111/14 5/112/14
f 67/49/25 66/48/25 70/48/25 71/49/25
f 63/113/37 13/114/37 66/114/37 67/113/37
f 13/114/38 1/67/38 65/67/38 66/114/38
f 62/68/39 63/113/39 67/113/39 64/68/39
f 71/49/14 70/48/14 69/17/14 68/111/14
f 65/17/2 64/111/2 68/111/2 69/17/2
f 64/111/4 67/49/4 71/49/4 68/111/4
f 66/48/1 65/17/1 69/17/1 70/48/1
f 72/2/40 77/1/40 76/29/40 73/20/40
f 78/4/41 75/3/41 74/25/41 79/32/41
f 11/115/3 23/116/3 79/116/3 74/115/3
f 18/1/2 17/29/2 76/29/2 77/1/2
f 4/2/3 18/1/3 77/1/3 72/2/3
f 5/117/25 4/118/25 72/118/25 73/117/25
f 12/119/25 11/120/25 74/120/25 75/119/25
f 23/32/2 22/4/2 78/4/2 79/32/2
f 87/78/25 83/78/25 88/78/25
f 86/78/25 85/78/25 87/78/25
f 81/78/25 84/78/25 83/78/25
f 85/78/25 82/78/25 81/78/25
f 38/85/42 37/121/42 87/121/42 88/85/42
f 35/78/43 37/78/43 87/78/43 85/78/43
f 32/82/44 31/122/44 81/122/44 82/82/44
f 37/121/42 36/83/42 86/83/42 87/121/42
f 31/122/44 34/123/44 84/123/44 81/122/44
f 31/78/45 35/78/45 85/78/45 81/78/45
f 34/123/29 33/84/29 83/84/29 84/123/29
f 37/78/46 33/78/46 83/78/46 87/78/46
f 90/124/47 89/125/47 93/125/47 94/124/47
f 92/101/48 91/95/48 95/95/48 96/101/48
f 44/102/30 48/102/30 95/102/30 91/102/30
f 48/126/4 49/127/4 96/127/4 95/126/4
f 45/93/1 44/102/1 91/102/1 92/93/1
f 90/94/35 94/94/35 111/94/35 112/94/35
f 99/126/49 100/127/49 104/127/49 103/126/49
f 98/110/50 97/104/50 101/104/50 102/110/50
f 55/128/4 56/129/4 102/129/4 101/128/4
f 54/102/26 44/102/26 99/102/26 103/102/26
f 102/103/14 56/103/14 114/103/14 118/103/14
f 45/93/31 57/93/31 104/93/31 100/93/31
f 44/102/4 45/93/4 100/93/4 99/102/4
f 106/92/31 105/92/31 109/92/31 110/92/31
f 107/94/26 108/94/26 112/94/26 111/94/26
f 46/92/14 93/92/14 109/92/14 105/92/14
f 42/92/51 46/92/51 105/92/51 106/92/51
f 93/92/33 89/92/33 110/92/33 109/92/33
f 47/94/52 3/94/52 108/94/52 107/94/52
f 94/94/3 47/94/3 107/94/3 111/94/3
f 114/103/32 113/103/32 117/103/32 118/103/32
f 116/105/30 115/105/30 119/105/30 120/105/30
f 56/103/53 43/103/53 113/103/53 114/103/53
f 98/103/34 102/103/34 118/103/34 117/103/34
f 55/105/3 101/105/3 119/105/3 115/105/3
f 6/105/54 55/105/54 115/105/54 116/105/54
f 43/103/3 98/103/3 117/103/3 113/103/3
f 101/105/36 97/105/36 120/105/36 119/105/36
usemtl Material.002
f 24/5/2 19/6/2 14/7/2 16/8/2
f 4/2/6 5/20/6 6/21/6
f 3/36/15 44/37/15 6/38/15 5/39/15 62/40/15 1/41/15
f 9/43/17 11/44/17 10/45/17 27/46/17 7/47/17
f 2/52/20 8/53/20 7/54/20 29/55/20 25/56/20 42/57/20 3/58/20
f 43/69/25 45/70/25 42/71/25 25/72/25 30/73/25 26/74/25
f 52/97/25 51/98/25 50/99/25 53/100/25
f 43/103/1 6/105/1 97/105/1 98/103/1
f 59/106/25 58/107/25 61/108/25 60/109/25
f 3/94/14 90/94/14 112/94/14 108/94/14
f 3/94/4 42/92/4 89/92/4 90/94/4
f 97/105/14 6/105/14 116/105/14 120/105/14
f 89/92/3 42/92/3 106/92/3 110/92/3
l 39 40
l 41 40
l 28 40
l 40 80
